<svg aria-hidden="true" style="position: absolute; width: 0; height: 0; overflow: hidden;" version="1.1"
    xmlns="http://www.w3.org/2000/svg" xmlns:xlink="http://www.w3.org/1999/xlink">
    <defs>
        <symbol id="icon-github" viewBox="0 0 27 32">
            <path
                d="M5.296 0.067c0 0.022-0.018 0.040-0.040 0.040-0.028 0-0.040 0.028-0.040 0.093 0 0.051-0.012 0.093-0.027 0.093s-0.027 0.042-0.027 0.094c0 0.059-0.015 0.1-0.040 0.109s-0.040 0.050-0.040 0.106c0 0.050-0.012 0.090-0.027 0.090s-0.027 0.047-0.027 0.104c0 0.068-0.014 0.109-0.040 0.119-0.027 0.010-0.040 0.053-0.040 0.136 0 0.066-0.012 0.121-0.027 0.121s-0.027 0.070-0.027 0.157c0 0.115-0.011 0.161-0.040 0.172-0.030 0.012-0.040 0.061-0.040 0.202 0 0.107-0.011 0.187-0.027 0.187-0.017 0-0.027 0.337-0.027 0.958s0.009 0.958 0.027 0.958c0.015 0 0.027 0.074 0.027 0.17 0 0.118 0.012 0.18 0.040 0.203 0.025 0.021 0.040 0.080 0.040 0.163 
            0 0.071 0.012 0.13 0.027 0.13s0.027 0.047 0.027 0.104c0 0.068 0.014 0.109 0.040 0.119s0.040 0.050 0.040 0.109c0 0.052 0.012 0.094 0.027 0.094s0.027 0.042 0.027 0.093c0 0.065 0.012 0.093 0.040 0.093s0.040 0.028 0.040 0.093c0 0.051 0.012 0.093 0.027 0.093s0.027 0.031 0.027 0.068c0 0.070-0.054 0.144-0.104 0.144-0.016 0-0.029 0.013-0.029 0.029v0c0 0.037-0.068 0.104-0.104 0.104-0.016 0-0.029 0.013-0.029 0.029v0c0 0.037-0.068 0.104-0.104 0.104-0.016 0-0.028 0.013-0.029 0.028v0c0 0.016-0.042 0.068-0.093 0.116s-0.093 0.096-0.093 0.107c0 0.010-0.015 0.035-0.033 0.056-0.079 0.088-0.1 0.118-0.1 0.144 0 0.015-0.016 0.028-0.035 0.028s-0.051 0.042-0.072 0.093c-0.020 0.051-0.049 0.093-0.065 0.093-0.030 0-0.095 0.121-0.095 0.178 0 0.019-0.018 0.035-0.040 0.035-0.025 0-0.040 0.025-0.040 0.067 0 0.037-0.012 0.067-0.027 0.067s-0.027 0.030-0.027 0.067c0 0.041-0.015 0.067-0.040 0.067s-0.040 
            0.025-0.040 0.067c0 0.037-0.012 0.067-0.027 0.067s-0.027 0.030-0.027 0.067c0 0.041-0.015 0.067-0.040 0.067s-0.040 0.025-0.040 0.067c0 0.037-0.012 0.067-0.027 0.067s-0.027 0.042-0.027 0.093c0 0.065-0.012 0.093-0.040 0.093s-0.040 0.030-0.040 0.106c0 0.059-0.012 0.106-0.027 0.106s-0.027 0.042-0.027 0.093c0 0.065-0.012 0.093-0.040 0.093s-0.040 0.030-0.040 0.106c0 0.059-0.012 0.106-0.027 0.106s-0.027 0.059-0.027 0.13c0 0.091-0.012 0.135-0.040 0.146s-0.040 0.056-0.040 0.162c0 0.081-0.012 0.147-0.027 0.147s-0.027 0.075-0.027 0.173c0 0.136-0.009 0.173-0.040 0.173s-0.040 0.040-0.040 0.2c0 0.115-0.011 0.2-0.027 0.2s-0.027 0.103-0.027 0.255c0 0.191-0.010 0.265-0.040 0.295-0.032 0.032-0.040 0.117-0.040 0.411 0 0.233-0.010 0.371-0.027 0.371-0.073 0-0 3.748 0.074 3.772 0.022 0.007 0.033 0.066 0.033 0.168 0 0.087 0.012 0.157 0.027 0.157s0.027 0.059 0.027 0.131c0 0.081 0.015 0.146 0.040
            0.171 0.022 0.022 0.040 0.082 0.040 0.133s0.012 0.101 0.027 0.11c0.015 0.009 0.027 0.064 0.027 0.122 0 0.069 0.014 0.111 0.040 0.121 0.024 0.009 0.040 0.050 0.040 0.104 0 0.049 0.012 0.096 0.027 0.105s0.027 0.045 0.027 0.079 0.018 0.081 0.040 0.103c0.022 0.022 0.040 0.065 0.040 0.095s0.012 0.055 0.027 0.055 0.027 0.028 0.027 0.061c0 0.034 0.018 0.085 0.039 0.113s0.039 0.079 0.040 0.111 0.013 0.060 0.027 0.060c0.015 0 0.027 0.024 0.027 0.054s0.018 0.061 0.040 0.069c0.022 0.008 0.040 0.044 0.040 0.079s0.012 0.064 0.027 0.064 0.027 0.024 0.027 0.054c0 0.030 0.018 0.061 0.040 0.069s0.040 0.044 0.040 0.079c0 0.035 0.009 0.064 0.021 0.064s0.043 0.042 0.071 0.093c0.028 0.051 0.060 0.093 0.073 0.093s0.022 0.030 0.022 0.067c0 0.037 0.015 0.067 0.035 0.067s0.051 0.042 0.072 0.093 0.064 0.114 0.098 0.139c0.034 0.025 0.062 0.073 0.062 0.106 0 0.036 0.016 0.060 0.040 0.060 0.022 0 0.040 0.012
            0.040 0.028s0.030 0.058 0.067 0.094c0.037 0.037 0.067 0.084 0.067 0.105s0.012 0.039 0.027 0.039c0.015 0 0.027 0.018 0.027 0.040s0.013 0.040 0.029 0.040c0.037 0 0.104 0.068 0.104 0.105 0 0.016 0.018 0.029 0.040 0.029s0.040 0.020 0.040 0.044c0 0.024 0.030 0.071 0.067 0.105s0.067 0.069 0.067 0.078c0 0.027 0.074 0.093 0.104 0.093 0.016 0 0.029 0.013 0.029 0.029v0c0 0.037 0.068 0.105 0.104 0.105 0.016 0 0.029 0.013 0.029 0.029v0c0 0.037 0.068 0.105 0.104 0.105 0.016 0 0.029 0.018 0.029 0.040s0.018 0.040 0.040 0.040c0.022 0 0.040 0.012 0.040 0.027s0.018 0.027 0.041 0.027c0.022 0 0.048 0.018 0.056 0.040s0.027 0.040 0.041 0.040c0.035 0 0.102 0.069 0.102 0.105 0 0.016 0.014 0.029 0.030 0.029s0.058 0.030 0.092 0.067 0.080 0.067 0.103 0.067c0.023 0 0.041 0.012 0.041 0.027s0.018 0.027 0.040 0.027c0.022 0 0.040 0.014 0.040 0.030 0 0.041 0.082 0.101 0.14 0.102 0.026 0 0.047 0.019 0.047 0.041s0.018 
            0.040 0.040 0.040c0.022 0 0.040 0.012 0.040 0.027s0.019 0.027 0.041 0.027c0.023 0 0.069 0.030 0.103 0.067s0.087 0.067 0.119 0.067c0.033 0 0.057 0.017 0.057 0.040 0 0.022 0.018 0.040 0.040 0.040s0.040 0.012 0.040 0.027c0 0.015 0.030 0.027 0.067 0.027 0.041 0 0.067 0.015 0.067 0.040s0.025 0.040 0.067 0.040c0.037 0 0.067 0.012 0.067 0.027s0.018 0.027 0.040 0.027c0.022 0 0.040 0.009 0.040 0.020 0 0.026 0.153 0.113 0.199 0.113 0.019 0 0.042 0.018 0.050 0.040s0.040 0.040 0.069 0.040c0.030 0 0.054 0.012 0.054 0.027s0.030 0.027 0.067 0.027c0.037 0 0.074 0.018 0.083 0.040s0.044 0.040 0.079 0.040c0.035 0 0.064 0.012 0.064 0.027s0.042 0.027 0.093 0.027c0.065 0 0.093 0.012 0.093 0.040 0 0.025 0.025 0.040 0.067 0.040 0.037 0 0.067 0.012 0.067 0.027s0.025 0.027 0.055 0.027c0.030 0 0.073 0.018 0.095 0.040s0.069 0.040 0.105 0.040c0.036 0 0.065 0.012 0.065 0.027s0.048 0.027 0.106 0.027c0.077 0 0.106 0.011 0.106
            0.040 0 0.026 0.026 0.040 0.078 0.040 0.043 0 0.086 0.012 0.095 0.027s0.056 0.027 0.105 0.027c0.054 0 0.095 0.015 0.104 0.040s0.050 0.040 0.109 0.040c0.052 0 0.094 0.012 0.094 0.027s0.043 0.027 0.095 0.027c0.052 0 0.113 0.018 0.135 0.040s0.087 0.040 0.145 0.040c0.057 0 0.104 0.012 0.104 0.027s0.055 0.027 0.122 0.027c0.073 0 0.138 0.016 0.162 0.040s0.090 0.040 0.171 0.040c0.072 0 0.131 0.012 0.131 0.027s0.075 0.027 0.173 0.027c0.136 0 0.173 0.009 0.173 0.040s0.040 0.040 0.2 0.040c0.115 0 0.2 0.011 0.2 0.027s0.084 0.027 0.2 0.027c0.16 0 0.2 0.008 0.2 0.040 0 0.022-0.018 0.040-0.040 0.040s-0.040 0.009-0.040 0.020c-0 0.011-0.030 0.055-0.067 0.097s-0.067 0.093-0.067 0.113-0.012 0.036-0.027 0.036c-0.015 0-0.027 0.030-0.027 0.067 0 0.041-0.015 0.067-0.040 0.067s-0.040 0.025-0.040 0.067c0 0.037-0.012 0.067-0.027 0.067s-0.027 0.030-0.027 0.067c0 0.041-0.015 0.067-0.040 0.067s-0.040 0.025-0.040 0.067c0 
            0.037-0.012 0.067-0.027 0.067s-0.027 0.041-0.027 0.090c0 0.056-0.015 0.096-0.040 0.106-0.023 0.009-0.040 0.049-0.040 0.094 0 0.044-0.012 0.087-0.027 0.096s-0.027 0.056-0.027 0.105c0 0.054-0.015 0.095-0.040 0.104-0.027 0.010-0.040 0.053-0.040 0.136 0 0.066-0.012 0.121-0.027 0.121s-0.027 0.060-0.027 0.134c0 0.094-0.012 0.138-0.040 0.149-0.029 0.011-0.040 0.057-0.040 0.171 0 0.085-0.012 0.163-0.027 0.172-0.016 0.010-0.027 0.173-0.027 0.399v0.383l-0.1 0.008c-0.066 0.005-0.097 0.020-0.092 0.044 0.005 0.024-0.010 0.030-0.048 0.018-0.033-0.010-0.081-0-0.12 0.025-0.035 0.023-0.101 0.042-0.146 0.042-0.048 0-0.088 0.016-0.097 0.040-0.011 0.030-0.040 0.036-0.114 0.024-0.072-0.011-0.111-0.004-0.142 0.027-0.028 0.028-0.090 0.043-0.185 0.043-0.079 0-0.157 0.014-0.174 0.031-0.043 0.043-1.541 0.042-1.584-0.001-0.016-0.016-0.094-0.030-0.173-0.030-0.096 0-0.157-0.014-0.185-0.043-0.031-0.031-0.070-0.038-0.144-0.026-0.080
            0.013-0.102 0.008-0.102-0.024 0-0.027-0.026-0.040-0.081-0.040-0.044 0-0.11-0.019-0.146-0.043s-0.090-0.037-0.119-0.029c-0.035 0.009-0.053 0.001-0.053-0.023s-0.029-0.037-0.077-0.037c-0.042 0-0.092-0.019-0.111-0.042s-0.056-0.036-0.083-0.029c-0.030 0.008-0.048-0.002-0.048-0.025 0-0.022-0.027-0.037-0.064-0.037-0.035 0-0.071-0.019-0.080-0.043-0.010-0.027-0.036-0.038-0.069-0.029s-0.053 0.001-0.053-0.024c0-0.021-0.018-0.037-0.040-0.037s-0.040-0.012-0.040-0.026c0-0.014-0.030-0.034-0.067-0.043s-0.067-0.027-0.067-0.040c0-0.013-0.022-0.024-0.050-0.024s-0.072-0.030-0.099-0.067c-0.027-0.037-0.064-0.067-0.080-0.067s-0.046-0.018-0.064-0.041c-0.019-0.023-0.050-0.035-0.070-0.027s-0.036-0.001-0.036-0.019c-0-0.018-0.050-0.074-0.111-0.126-0.148-0.125-0.554-0.527-0.554-0.549 0-0.009-0.040-0.055-0.089-0.101s-0.094-0.095-0.1-0.11c-0.032-0.077-0.149-0.225-0.177-0.225-0.018-0-0.033-0.026-0.033-0.057s-0.030-0.085-0.067-0.119-0.067-0.079-0.067-0.1c0-0.021-0.030-0.067-0.066-0.101s-0.066-0.084-0.067-0.109c-0-0.026-0.012-0.047-0.027-0.047s-0.027-0.030-0.027-0.067c0-0.041-0.015-0.067-0.040-0.067-0.022 0-0.040-0.018-0.040-0.040s-0.012-0.040-0.027-0.040c-0.015 0-0.027-0.019-0.027-0.041s-0.030-0.069-0.067-0.103-0.067-0.073-0.067-0.088c0-0.014-0.030-0.061-0.067-0.103s-0.066-0.086-0.067-0.097c0-0.011-0.018-0.020-0.040-0.020s-0.040-0.013-0.040-0.029c0-0.037-0.068-0.105-0.104-0.105-0.016 0-0.029-0.012-0.029-0.027 0-0.035-0.205-0.239-0.24-0.239-0.015 0-0.027-0.013-0.027-0.029 0-0.032-0.066-0.105-0.094-0.105-0.010 0-0.042-0.030-0.070-0.067s-0.064-0.067-0.078-0.067-0.040-0.012-0.058-0.027c-0.147-0.124-0.198-0.161-0.238-0.174-0.026-0.008-0.047-0.026-0.047-0.040s-0.029-0.025-0.064-0.025c-0.035 0-0.071-0.018-0.079-0.040s-0.040-0.040-0.069-0.040c-0.030 0-0.054-0.012-0.054-0.027s-0.029-0.027-0.064-0.027c-0.035 0-0.071-0.018-0.079-0.040s-0.039-0.040-0.068-0.040-0.060-0.012-0.069-0.027c-0.009-0.015-0.057-0.027-0.106-0.027s-0.094-0.013-0.099-0.029c-0.005-0.016-0.066-0.036-0.135-0.043s-0.126-0.025-0.126-0.037c0-0.013-0.136-0.023-0.302-0.023-0.223 0-0.324-0.011-0.387-0.043-0.105-0.052-0.537-0.045-0.555 0.009-0.007 0.021-0.063 0.033-0.153 0.033-0.225 0-0.418 0.226-0.299 0.351 0.018 0.019 0.051 0.071 0.073 0.115 0.051 0.104 0.2 0.253 0.252 0.253 0.023 0 0.041 0.018 0.041 0.040s0.018 0.040 0.040 0.040c0.022 0 0.040 0.012 0.040 0.027s0.017 0.027 0.037 0.027c0.020 0 0.044 0.018 0.052 0.040s0.034 0.040 0.056 0.040c0.022 0 0.041 0.012 0.041 0.027s0.018 0.027 0.040 0.027c0.022 0 0.040 0.012 0.040 0.026s0.030 0.034 0.067 0.043 0.067 0.027 0.067 0.040c0 0.013 0.030 0.024 0.067 0.024s0.067 0.012 0.067 0.028c0 0.015 0.030 0.058 0.067 0.094s0.067 0.080 0.067 0.095c0 0.016 0.042 0.068 0.093 0.117s0.093 0.101 0.093 0.116c0 0.016 0.017 0.028 0.037 0.028s0.057 0.042 0.081 0.093c0.024 0.051 0.056 0.093 0.070 0.093s0.025 0.013 0.025 0.029c0 0.037 0.068 0.105 0.105 0.105 0.016 0 0.029 0.030 0.029 0.067s0.012 0.067 0.027 0.067c0.015 0 0.027 0.018 0.027 0.040s0.014 0.040 0.030 0.040c0.041 0 0.101 0.082 0.102 0.14 0 0.026 0.019 0.047 0.041 0.047s0.040 0.018 0.040 0.040c0 0.022 0.012 0.040 0.027 0.040s0.027 0.022 0.027 0.049 0.030 0.072 0.067 0.099c0.037 0.027 0.067 0.071 0.067 0.098s0.018 0.055 0.040 0.063c0.022 0.008 0.040 0.032 0.040 0.052s0.012 0.037 0.027 0.037 0.027 0.024 0.027 0.054c0 0.030 0.016 0.060 0.035 0.068s0.052 0.055 0.072 0.106c0.020 0.051 0.052 0.092 0.071 0.092s0.035 0.029 0.035 0.067c0 0.037 0.012 0.067 0.027 0.067s0.027 0.017 0.027 0.037c0 0.020 0.018 0.044 0.040 0.052s0.040 0.040 0.040 0.069c0 0.030 0.012 0.054 0.027 0.054s0.027 0.024 0.027 0.054c0 0.030 0.018 0.061 0.040 0.069s0.040 0.033 0.040 0.054 0.042 0.104 0.093 0.184c0.051 0.080 0.093 0.163 0.093 0.185s0.018 0.039 0.040 0.039c0.025 0 0.040 0.025 0.040 0.067 0 0.037 0.012 0.067 0.027 0.067s0.027 0.030 0.027 0.067c0 0.041 0.015 0.067 0.040 0.067 0.026 0 0.040 0.026 0.040 0.078 0 0.043 0.012 0.086 0.027 0.095s0.027 0.039 0.027 0.066c0 0.027 0.018 0.068 0.040 0.090s0.040 0.057 0.040 0.079c0 0.021 0.030 0.067 0.066 0.102s0.066 0.084 0.067 0.109c0 0.026 0.012 0.047 0.027 0.047s0.027 0.024 0.027 0.054c0 0.030 0.018 0.061 0.040 0.069s0.040 0.032 0.040 0.052c0 0.020 0.012 0.037 0.027 0.037s0.027 0.021 0.027 0.046c0 0.025 0.027 0.070 0.060 0.1 0.060 0.055 0.109 0.122 0.143 0.196l0.002 0.004c0.026 0.056 0.079 0.106 0.112 0.106 0.016 0 0.029 0.015 0.029 0.034s0.030 0.056 0.067 0.084c0.037 0.027 0.067 0.062 0.067 0.076 0 0.057 0.352 0.405 0.456 0.452 0.042 0.019 0.076 0.044 0.076 0.056 0 0.032 0.071 0.098 0.104 0.098 0.016 0 0.029 0.017 0.029 0.037s0.042 0.057 0.093 0.081c0.051 0.024 0.093 0.056 0.093 0.070s0.014 0.025 0.030 0.025 0.058 0.030 0.092 0.067 0.080 0.067 0.103 0.067c0.023 0 0.041 0.012 0.041 0.027s0.018 0.027 0.040 0.027c0.022 0 0.040 0.012 0.040 0.026s0.030 0.034 0.067 0.043 0.067 0.027 0.067 0.040c0 0.013 0.030 0.024 0.067 0.024 0.041 0 0.067 0.015 0.067 0.040 0 0.022 0.023 0.040 0.052 0.040s0.059 0.012 0.068 0.027c0.009 0.015 0.046 0.027 0.081 0.027 0.040 0 0.065 0.015 0.065 0.040s0.025 0.040 0.067 0.040c0.037 0 0.067 0.012 0.067 0.027s0.030 0.027 0.067 0.027c0.041 0 0.067 0.015 0.067 0.040s0.025 0.040 0.065 0.040c0.036 0 0.072 0.012 0.081 0.027s0.050 0.027 0.092 0.027c0.042 0 0.082 0.017 0.091 0.040 0.010 0.025 0.050 0.040 0.109 0.040 0.052
            0 0.094 0.012 0.094 0.027s0.060 0.027 0.133 0.027c0.101 0 0.133 0.010 0.133 0.040s0.033 0.040 0.133 0.040c0.073 0 0.133 0.012 0.133 0.027s0.074 0.027 0.17 0.027c0.127 0 0.174 0.010 0.185 0.040 0.012 0.032 0.071 0.040 0.296 0.040 0.169 0 0.28 0.011 0.28 0.027 0 0.036 1.162 0.036 1.184 0 0.009-0.015 0.142-0.027 0.306-0.027 0.222 0 0.299-0.009 0.329-0.040 0.028-0.028 0.096-0.040 0.227-0.040 0.103 0 0.194-0.012 0.203-0.027s0.076-0.027 0.148-0.027h0.131v4.151h8.569v-4.083c0-2.694-0.009-4.089-0.027-4.1-0.015-0.009-0.027-0.088-0.027-0.175 0-0.117-0.011-0.163-0.040-0.174-0.028-0.011-0.040-0.054-0.040-0.146 0-0.072-0.012-0.13-0.027-0.13s-0.027-0.054-0.027-0.121c0-0.083-0.013-0.125-0.040-0.136-0.026-0.010-0.040-0.051-0.040-0.119 0-0.057-0.012-0.104-0.027-0.104s-0.027-0.042-0.027-0.093c0-0.065-0.012-0.093-0.040-0.093s-0.040-0.028-0.040-0.092c0-0.050-0.012-0.099-0.027-0.108s-0.027-0.044-0.027-0.078-0.018-0.077-0.040-0.095c-0.022-0.018-0.040-0.062-0.040-0.096s-0.012-0.063-0.027-0.063c-0.015 0-0.027-0.024-0.027-0.054s-0.018-0.061-0.040-0.069c-0.022-0.008-0.040-0.039-0.040-0.067s-0.025-0.078-0.055-0.11c-0.030-0.032-0.073-0.098-0.096-0.145s-0.058-0.087-0.078-0.087c-0.020 0-0.037-0.018-0.037-0.040 0-0.032 0.040-0.040 0.2-0.040 0.115 0 0.2-0.011 0.2-0.027s0.084-0.027 0.2-0.027c0.16 0 0.2-0.008 0.2-0.040s0.037-0.040 0.173-0.040c0.098 0 0.173-0.012 0.173-0.027s0.066-0.027 0.147-0.027c0.106 0 0.151-0.011 0.162-0.040s0.054-0.040 0.146-0.040c0.072 0 0.13-0.012 0.13-0.027s0.054-0.027 0.121-0.027c0.083 0 0.125-0.013 0.136-0.040 0.010-0.026 0.051-0.040 0.119-0.040 0.057 0 0.104-0.012 0.104-0.027s0.042-0.027 0.094-0.027c0.059 0 0.1-0.015 0.109-0.040s0.050-0.040 0.104-0.040c0.049 0 0.096-0.012 0.105-0.027s0.052-0.027 0.095-0.027c0.052 0 0.078-0.014 0.078-0.040 0-0.029 0.030-0.040 0.106-0.040 0.059 0 0.106-0.012 0.106-0.027s0.029-0.027 0.065-0.027c0.036 0 0.083-0.018 0.105-0.040s0.065-0.040 0.095-0.040c0.030 0 0.055-0.012 0.055-0.027s0.030-0.027 0.067-0.027c0.037 0 0.074-0.018 0.083-0.040s0.048-0.040 0.092-0.040c0.042 0 0.077-0.012 0.077-0.027s0.030-0.027 0.067-0.027c0.037 0 0.074-0.018 0.083-0.040s0.044-0.040 0.079-0.040c0.035 0 0.064-0.012 0.064-0.027s0.024-0.027 0.054-0.027c0.030 0 0.061-0.018 0.069-0.040s0.030-0.040 0.048-0.040c0.051 0 0.201-0.081 0.201-0.108 0-0.014 0.018-0.025 0.040-0.025s0.040-0.012 0.040-0.027c0-0.015 0.030-0.027 0.067-0.027 0.041 0 0.067-0.015 0.067-0.040s0.025-0.040 0.067-0.040c0.037 0 0.067-0.012 0.067-0.027s0.018-0.027 0.040-0.027c0.022 0 0.040-0.018 0.040-0.040 0-0.023 0.024-0.040 0.057-0.040 0.031 0 0.085-0.030 0.119-0.067s0.080-0.067 0.103-0.067c0.023 0 0.041-0.012 0.041-0.027s0.018-0.027 0.040-0.027c0.022 0 0.040-0.018 0.040-0.040s0.021-0.040 0.047-0.041c0.058-0.001 0.14-0.061 0.14-0.102 0-0.017 0.018-0.030 0.040-0.030s0.040-0.012 0.040-0.027c0-0.015 0.022-0.027 0.049-0.027s0.072-0.030 0.099-0.067c0.027-0.037 0.065-0.067 0.084-0.067s0.034-0.013 0.034-0.029c0-0.037 0.068-0.105 0.105-0.105 0.016 0 0.029-0.011 0.029-0.025s0.042-0.045 0.093-0.070c0.051-0.024 0.093-0.061 0.093-0.081s0.013-0.037 0.029-0.037c0.037 0 0.105-0.068 0.105-0.105 0-0.016 0.013-0.029 0.029-0.029v0c0.037 0 0.105-0.068 0.105-0.105 0-0.016 0.013-0.029 0.029-0.029v0c0.031 0 0.105-0.065 0.105-0.093 0-0.009 0.030-0.044 0.067-0.078s0.067-0.081 0.067-0.105c0-0.024 0.018-0.044 0.040-0.044s0.040-0.013 0.040-0.029c0-0.037 0.068-0.105 0.105-0.105 0.016 0 0.029-0.018 0.029-0.040s0.012-0.040 0.027-0.040c0.015 0 0.027-0.017 0.027-0.039s0.030-0.069 0.067-0.105 0.067-0.079 0.067-0.094c0-0.015 0.018-0.028 0.040-0.028 0.024 0 0.040-0.024 0.040-0.060 0-0.033 0.028-0.081 0.062-0.106s0.078-0.088 0.098-0.139c0.020-0.051 0.052-0.093 0.072-0.093s0.035-0.029 0.035-0.067c0-0.037 0.010-0.067 0.022-0.067s0.045-0.042 0.073-0.093c0.028-0.051 0.059-0.093 0.071-0.093s0.021-0.029 0.021-0.064c0-0.035 0.018-0.071 0.040-0.079s0.040-0.040 0.040-0.069c0-0.030 0.012-0.054 0.027-0.054s0.027-0.029 0.027-0.064c0-0.035 0.018-0.071 0.040-0.079s0.040-0.040 0.040-0.069c0-0.030 0.012-0.054 0.027-0.054s0.027-0.031 0.027-0.068c0-0.038 0.018-0.086 0.040-0.108s0.040-0.069 0.040-0.105c0-0.036 0.012-0.065 0.027-0.065s0.027-0.028 0.027-0.063c0-0.035 0.018-0.078 0.040-0.096s0.040-0.061 0.040-0.095 0.012-0.069 0.027-0.078c0.015-0.009 0.027-0.053 0.027-0.097s0.018-0.098 0.040-0.12c0.022-0.022 0.040-0.080 0.040-0.13s0.012-0.097 0.027-0.106c0.015-0.009 0.027-0.058 0.027-0.11s0.018-0.111 0.040-0.133c0.025-0.025 0.040-0.090 0.040-0.171 0-0.072 0.012-0.131 0.027-0.131s0.027-0.066 0.027-0.147c0-0.095 0.016-0.172 0.047-0.218 0.072-0.11 0.072-4.463 0-4.516-0.039-0.028-0.047-0.077-0.047-0.291 0-0.153-0.011-0.257-0.027-0.257s-0.027-0.083-0.027-0.197c0-0.15-0.009-0.2-0.040-0.212s-0.040-0.059-0.040-0.188c0-0.095-0.012-0.18-0.027-0.189s-0.027-0.076-0.027-0.148c0-0.099-0.010-0.131-0.040-0.131s-0.040-0.033-0.040-0.133c0-0.073-0.012-0.133-0.027-0.133s-0.027-0.047-0.027-0.104c0-0.068-0.014-0.109-0.040-0.119-0.025-0.010-0.040-0.050-0.040-0.108 0-0.051-0.012-0.1-0.027-0.109s-0.027-0.052-0.027-0.095c0-0.052-0.014-0.078-0.040-0.078-0.028 0-0.040-0.028-0.040-0.093 0-0.051-0.012-0.093-0.027-0.093s-0.027-0.030-0.027-0.067c0-0.041-0.015-0.067-0.040-0.067s-0.040-0.025-0.040-0.065c0-0.036-0.012-0.072-0.027-0.081s-0.027-0.038-0.027-0.065c0-0.027-0.018-0.056-0.040-0.064s-0.040-0.040-0.040-0.069c0-0.030-0.012-0.054-0.027-0.054s-0.027-0.030-0.027-0.067c0-0.041-0.015-0.067-0.040-0.067s-0.040-0.025-0.040-0.067c0-0.037-0.012-0.067-0.027-0.067s-0.027-0.018-0.027-0.040c0-0.022-0.018-0.040-0.040-0.040s-0.040-0.021-0.041-0.047c-0.001-0.058-0.061-0.14-0.102-0.14-0.017 0-0.030-0.018-0.030-0.040s-0.012-0.040-0.027-0.040c-0.015 0-0.027-0.015-0.027-0.034s-0.030-0.066-0.067-0.105c-0.037-0.039-0.067-0.084-0.067-0.1s-0.013-0.028-0.028-0.028c-0 0-0 0-0 0v0c-0.037 0-0.105-0.068-0.105-0.104-0-0.016-0.013-0.029-0.029-0.029v0c-0.037 0-0.105-0.068-0.105-0.104-0-0.016-0.013-0.029-0.029-0.029v0c-0.037 0-0.105-0.068-0.105-0.104-0-0.016-0.013-0.029-0.029-0.029v0c-0.079 0-0.142-0.16-0.078-0.2 0.015-0.009 0.027-0.052 0.027-0.096 0-0.046 0.017-0.086 0.040-0.094 0.022-0.008 0.040-0.043 0.040-0.077s0.012-0.070 0.027-0.079 0.027-0.056 0.027-0.105 0.018-0.103 0.040-0.121c0.022-0.018 0.040-0.073 0.040-0.121s0.012-0.096 0.027-0.105c0.015-0.009 0.027-0.070 0.027-0.136 0-0.071 0.016-0.136 0.040-0.16 0.026-0.026 0.040-0.093 0.040-0.196 0-0.086 0.012-0.164 0.027-0.173 0.016-0.010 0.027-0.186 0.027-0.439s0.011-0.429 0.027-0.439c0.035-0.021 0.035-0.138 0-0.16-0.016-0.010-0.027-0.191-0.027-0.454 0-0.274-0.010-0.438-0.027-0.438-0.015 0-0.027-0.079-0.027-0.183 0-0.13-0.012-0.193-0.040-0.216-0.026-0.022-0.040-0.081-0.040-0.176 0-0.079-0.012-0.143-0.027-0.143s-0.027-0.054-0.027-0.121c0-0.083-0.013-0.125-0.040-0.136-0.026-0.010-0.040-0.051-0.040-0.119 0-0.057-0.012-0.104-0.027-0.104s-0.027-0.041-0.027-0.090c0-0.056-0.015-0.096-0.040-0.106s-0.040-0.050-0.040-0.109c0-0.052-0.012-0.094-0.027-0.094s-0.027-0.042-0.027-0.093c0-0.065-0.012-0.093-0.040-0.093-0.022 0-0.040-0.018-0.040-0.040 0-0.058-0.484-0.058-0.532 0-0.019 0.023-0.077 0.040-0.135 0.040-0.056 0-0.109 0.012-0.118 0.027s-0.052 0.027-0.096 0.027c-0.046 0-0.086 0.017-0.094 0.040-0.008 0.022-0.044 0.040-0.079 0.040s-0.064 0.012-0.064 0.027-0.029 0.027-0.065 0.027-0.083 0.018-0.105 0.040-0.065 0.040-0.095 0.040c-0.030 0-0.055 0.011-0.055 0.024s-0.030 0.031-0.067 0.040-0.067 0.028-0.067 0.043c0 0.014-0.018 0.026-0.040 0.026s-0.040 0.012-0.040 0.027c0 0.015-0.030 0.027-0.067 0.027-0.041 0-0.067 0.015-0.067 0.040s-0.025 0.040-0.067 0.040c-0.037 0-0.067 0.012-0.067 0.027s-0.018 0.027-0.040 0.027c-0.022 0-0.040 0.018-0.040 0.040s-0.024 0.040-0.053 0.040c-0.029 0-0.053 0.012-0.053 0.027s-0.018 0.027-0.040 0.027c-0.022 0-0.040 0.018-0.040 0.040s-0.018 0.040-0.040 0.040c-0.022 0-0.040 0.012-0.040 0.027s-0.022 0.027-0.049 0.027-0.072 0.030-0.099 0.067c-0.027 0.037-0.065 0.067-0.084 0.067s-0.034 0.015-0.034 0.033v0c-0 0.018-0.072 0.081-0.159 0.14s-0.159 0.121-0.159 0.14c-0 0.018-0.014 0.033-0.029 0.033-0.037 0-0.105 0.068-0.105 0.105-0 0.016-0.013 0.028-0.029 0.029v0c-0.037 0-0.105 0.068-0.105 0.105-0 0.016-0.013 0.028-0.029 0.029v0c-0.037 0-0.105 0.068-0.105 0.105 0 0.016-0.018 0.029-0.040 0.029s-0.040 0.010-0.040 0.022c0 0.012-0.022 0.045-0.048 0.073s-0.071 0.090-0.099 0.138c-0.028 0.048-0.066 0.087-0.085 0.087s-0.034 0.013-0.034 0.028-0.042 0.068-0.093 0.116c-0.051 0.048-0.093 0.106-0.093 0.128s-0.030 0.062-0.067 0.090c-0.037 0.027-0.067 0.065-0.067 0.084s-0.016 0.034-0.034 0.034c-0 0-0 0-0.001 0h0c-0.019 0-0.051 0.042-0.072 0.093s-0.052 0.093-0.072 0.093c-0.019 0-0.035 0.018-0.035 0.040s-0.012 0.040-0.027 0.040c-0.015 0-0.027 0.030-0.027 0.067 0 0.041-0.015 0.067-0.040 0.067-0.022 0-0.040 0.012-0.040 0.027 0 0.053-0.122 0.025-0.17-0.040-0.027-0.037-0.072-0.067-0.099-0.067s-0.049-0.012-0.049-0.027c0-0.015-0.024-0.027-0.054-0.027s-0.061-0.018-0.069-0.040c-0.008-0.022-0.037-0.040-0.064-0.040s-0.056-0.012-0.065-0.027-0.046-0.027-0.081-0.027c-0.040 0-0.065-0.015-0.065-0.040s-0.025-0.040-0.065-0.040c-0.036 0-0.072-0.012-0.081-0.027s-0.058-0.027-0.108-0.027c-0.064 0-0.092-0.012-0.092-0.040s-0.028-0.040-0.092-0.040c-0.050 0-0.099-0.012-0.108-0.027s-0.068-0.027-0.132-0.027c-0.078 0-0.12-0.013-0.131-0.040-0.011-0.029-0.056-0.040-0.161-0.040-0.080 0-0.153-0.012-0.162-0.027s-0.088-0.027-0.175-0.027c-0.117 0-0.163-0.011-0.174-0.040-0.012-0.031-0.065-0.040-0.239-0.040-0.131 0-0.223-0.011-0.223-0.027s-0.125-0.027-0.321-0.027c-0.25 0-0.33-0.009-0.361-0.040-0.060-0.060-3.95-0.060-4.011 0-0.031 0.031-0.111 0.040-0.361 0.040-0.196 0-0.321 0.010-0.321 0.027s-0.092 0.027-0.223 0.027c-0.174 0-0.227 0.009-0.239 0.040-0.011 0.029-0.057 0.040-0.174 0.040-0.087 0-0.166 0.012-0.175 0.027s-0.080 0.027-0.158 0.027c-0.102 0-0.146 0.011-0.157 0.040-0.010 0.026-0.052 0.040-0.121 0.040-0.058 0-0.113 0.012-0.122 0.027s-0.064 0.027-0.121 0.027c-0.075 0-0.105 0.011-0.105 0.040s-0.028 0.040-0.092 0.040c-0.050 0-0.099 0.012-0.108 0.027s-0.046 0.027-0.081 0.027c-0.040 0-0.065 0.015-0.065 0.040s-0.025 0.040-0.065 0.040c-0.036 0-0.072 0.012-0.081 0.027s-0.038 0.027-0.065 0.027c-0.027 0-0.056 0.018-0.064 0.040s-0.040 0.040-0.069 0.040c-0.030 0-0.054 0.012-0.054 0.027s-0.022 0.027-0.050 0.027-0.072 0.030-0.099 0.067c-0.049 0.065-0.17 0.093-0.17 0.040 0-0.015-0.018-0.027-0.040-0.027s-0.040-0.022-0.040-0.048c0-0.027-0.042-0.095-0.093-0.153s-0.093-0.126-0.093-0.151c0-0.026-0.018-0.047-0.040-0.047s-0.040-0.013-0.040-0.029c0-0.037-0.068-0.104-0.104-0.104-0.016 0-0.029-0.023-0.029-0.051s-0.042-0.094-0.093-0.147c-0.051-0.053-0.093-0.108-0.093-0.122s-0.015-0.026-0.034-0.026c-0.019 0-0.055-0.036-0.081-0.079s-0.088-0.123-0.139-0.177c-0.051-0.054-0.092-0.103-0.092-0.109 0-0.023-0.077-0.087-0.104-0.087-0.016-0-0.028-0.013-0.029-0.029v0c0-0.037-0.068-0.105-0.104-0.105-0.016-0-0.028-0.013-0.029-0.029v0c0-0.037-0.068-0.105-0.104-0.105-0.016 0-0.029-0.015-0.029-0.033-0-0.029-0.148-0.145-0.225-0.177-0.042-0.018-0.094-0.076-0.094-0.107 0-0 0-0 0-0 0-0.015-0.012-0.028-0.028-0.028h-0c-0.015 0-0.060-0.030-0.1-0.067s-0.087-0.067-0.105-0.067-0.034-0.012-0.034-0.027c0-0.015-0.018-0.027-0.040-0.027s-0.040-0.018-0.040-0.040c0-0.022-0.018-0.040-0.040-0.040s-0.040-0.012-0.040-0.027c0-0.015-0.017-0.027-0.039-0.027s-0.071-0.030-0.11-0.067c-0.039-0.037-0.094-0.067-0.121-0.067s-0.049-0.018-0.049-0.040c0-0.025-0.025-0.040-0.067-0.040-0.037 0-0.067-0.012-0.067-0.027s-0.024-0.027-0.054-0.027c-0.030 0-0.061-0.018-0.069-0.040s-0.032-0.040-0.052-0.040c-0.020 0-0.037-0.012-0.037-0.027s-0.036-0.027-0.081-0.027c-0.047 0-0.087-0.017-0.096-0.040-0.008-0.022-0.044-0.040-0.079-0.040s-0.064-0.012-0.064-0.027-0.029-0.027-0.064-0.027-0.071-0.018-0.079-0.040c-0.009-0.023-0.049-0.040-0.094-0.040-0.043 0-0.087-0.012-0.096-0.027s-0.068-0.027-0.132-0.027c-0.078 0-0.12-0.013-0.131-0.040-0.012-0.032-0.068-0.040-0.269-0.040-0.208 0-0.254 0.007-0.254 0.040z">
            </path>
            <path
                d="M7.897 24.847c0.033 0.006 0.081 0.006 0.106-0.001s-0.002-0.012-0.060-0.012c-0.059 0-0.079 0.006-0.046 0.012zM9.201 24.847c0.018 0.003 0.039 0.005 0.060 0.005s0.042-0.002 0.062-0.005l-0.002 0c0.033-0.006 0.006-0.012-0.060-0.012s-0.093 0.005-0.060 0.012z">
            </path>
            <path
                d="M7.897 24.847c0.033 0.006 0.081 0.006 0.106-0.001s-0.002-0.012-0.060-0.012c-0.059 0-0.079 0.006-0.046 0.012zM9.201 24.847c0.018 0.003 0.039 0.005 0.060 0.005s0.042-0.002 0.062-0.005l-0.002 0c0.033-0.006 0.006-0.012-0.060-0.012s-0.093 0.005-0.060 0.012z">
            </path>
        </symbol>
        <symbol id="icon-telephone" viewBox="0 0 32 32">
            <path
                d="M24.329 21.169c-1.045-1.032-2.351-1.032-3.389 0-0.792 0.786-1.585 1.572-2.364 2.371-0.213 0.22-0.393 0.266-0.653 0.12-0.513-0.28-1.059-0.506-1.552-0.812-2.297-1.445-4.222-3.303-5.926-5.394-0.846-1.039-1.598-2.151-2.124-3.403-0.107-0.253-0.087-0.419 0.12-0.626 0.792-0.766 1.565-1.552 2.344-2.337 1.085-1.092 1.085-2.371-0.007-3.469-0.619-0.626-1.239-1.239-1.858-1.864-0.639-0.639-1.272-1.285-1.918-1.918-1.045-1.019-2.351-1.019-3.389 0.007-0.799 0.786-1.565 1.591-2.377 2.364-0.752 0.713-1.132 1.585-1.212 2.604-0.127 1.658 0.28 3.223 0.852 4.748 1.172 3.156 2.957 5.96 5.121 8.53 2.923 3.476 6.413 6.226 10.494 8.21 1.838 0.892 3.742 1.578 5.813 1.691 1.425 0.080 2.664-0.28 3.656-1.392 0.679-0.759 1.445-1.452 2.164-2.177 1.065-1.079 1.072-2.384 0.013-3.449-1.265-1.272-2.537-2.537-3.809-3.802z">
            </path>
            <path
                d="M23.057 15.861l2.457-0.419c-0.386-2.257-1.452-4.302-3.070-5.926-1.711-1.711-3.875-2.79-6.259-3.123l-0.346 2.47c1.844 0.26 3.523 1.092 4.848 2.417 1.252 1.252 2.071 2.837 2.371 4.581z">
            </path>
            <path
                d="M26.899 5.181c-2.837-2.837-6.426-4.628-10.388-5.181l-0.346 2.47c3.423 0.479 6.526 2.031 8.976 4.475 2.324 2.324 3.849 5.261 4.402 8.49l2.457-0.419c-0.646-3.742-2.411-7.138-5.101-9.835z">
            </path>
        </symbol>
        <symbol id="icon-email" viewBox="0 0 32 32">
            <path
                d="M28.091 5.138h-24.183c-2.155 0-3.909 1.754-3.909 3.909v13.907c0 2.155 1.754 3.909 3.909 3.909h24.183c2.155 0 3.909-1.754 3.909-3.909v-13.906c0-2.156-1.753-3.909-3.909-3.909zM26.181 7.688l-10.181 6.559-10.181-6.559h20.363zM28.091 24.313h-24.183c-0.749 0-1.359-0.61-1.359-1.359v-13.835l12.663 8.143c0.017 0.011 0.035 0.018 0.053 0.028s0.037 0.020 0.056 0.029c0.098 0.051 0.199 0.091 0.303 0.118 0.011 0.003 0.021 0.004 0.032 0.007 0.113 0.027 0.228 0.043 0.343 0.043 0 0 0.001 0 0.001 0s0.001 0 0.002 0c0.115 0 0.23-0.016 0.343-0.043 0.011-0.003 0.021-0.004 0.032-0.007 0.103-0.027 0.204-0.068 0.303-0.118 0.019-0.009 0.037-0.019 0.056-0.029s0.036-0.017 0.053-0.028l12.663-8.143v13.834c-0 0.749-0.61 1.359-1.36 1.359z">
            </path>
        </symbol>
        <symbol id="icon-location" viewBox="0 0 32 32">
            <path
                d="M15.999 0c-6.123 0-11.105 4.982-11.105 11.105 0 5.894 10.075 19.665 10.504 20.248l0.4 0.545c0.047 0.064 0.121 0.101 0.2 0.101 0.080 0 0.154-0.037 0.201-0.102l0.4-0.545c0.429-0.583 10.504-14.354 10.504-20.248 0-6.123-4.982-11.105-11.105-11.105zM15.999 7.127c2.194 0 3.978 1.784 3.978 3.978 0 2.193-1.784 3.978-3.978 3.978-2.193 0-3.978-1.785-3.978-3.978 0-2.194 1.785-3.978 3.978-3.978z">
            </path>
        </symbol>
        <symbol id="researchgate" viewBox="0 0 32 32">
            <path
                d="M26.115 0c-1.091 0-2.011 0.253-2.764 0.753-0.751 0.503-1.293 1.248-1.617 2.24-0.056 0.16-0.108 0.356-0.145 0.556l-0.004 0.026c-0.034 0.17-0.070 0.411-0.099 0.654l-0.005 0.053c-0.032 0.277-0.056 0.613-0.066 0.952l-0 0.017c-0.013 0.376-0.017 0.828-0.017 1.355-0 0.032-0 0.069-0 0.107 0 0.439 0.007 0.877 0.020 1.313l-0.002-0.064c0.010 0.357 0.034 0.692 0.072 1.024l-0.005-0.055c0.032 0.292 0.069 0.534 0.113 0.772l-0.010-0.065h-0.007c0.043 0.229 0.095 0.425 0.16 0.615l-0.009-0.031c0.327 0.991 0.867 1.737 1.619 2.24 0.753 0.501 1.675 0.752 2.767 0.752 1.067 0 2.048-0.284 2.807-0.804 0.76-0.52 1.253-1.221 1.567-2.2 0.101-0.313 0.18-0.744 0.236-1.24 0.038-0.396 0.060-0.856 0.060-1.321 0-0.101-0.001-0.202-0.003-0.303l0 0.015v-1.093c0-0.127-0.063-0.189-0.187-0.189h-4.085c-0.125 0-0.187 0.063-0.187 0.188v1.275c0 0.125 0.061 0.187 0.187 0.187h2.221c0.075 0 0.112 0.040 0.112 0.115 0 0.48 0 0.827-0.048 1.153-0.051 0.325-0.133 0.596-0.196 0.808-0.144 0.513-0.464 0.885-0.851 1.168s-0.984 0.467-1.636 0.467c-0.727 0-1.201-0.2-1.613-0.471-0.408-0.271-0.689-0.605-0.893-1.22-0.101-0.298-0.171-0.645-0.195-1.003l-0.001-0.013c-0.018-0.227-0.034-0.531-0.044-0.836l-0.001-0.039c-0.013-0.347-0.019-0.763-0.019-1.252-0-0.030-0-0.065-0-0.1 0-0.405 0.007-0.808 0.020-1.209l-0.002 0.058c0.011-0.34 0.028-0.644 0.051-0.946l-0.004 0.072c0.027-0.371 0.097-0.716 0.206-1.043l-0.009 0.030c0.174-0.561 0.523-1.025 0.981-1.341l0.008-0.006c0.459-0.325 0.791-0.469 1.516-0.469 0.677 0 1.087 0.128 1.525 0.404 0.44 0.276 0.704 0.656 1.019 1.233 0.063 0.125 0.148 0.157 0.264 0.093l1.392-0.573c0.1-0.064 0.12-0.153 0.056-0.265-0.178-0.377-0.386-0.702-0.628-0.998l0.007 0.008c-0.259-0.313-0.557-0.581-0.89-0.8l-0.015-0.009c-0.346-0.228-0.746-0.415-1.173-0.539l-0.031-0.008c-0.435-0.126-0.935-0.198-1.451-0.198-0.025 0-0.050 0-0.075 0.001l0.004-0zM10.956 7.781c-2.253 0-4.048 0.115-5.729 0.115-1.528 0-3.055 0-4.009-0.039v1.108l1.451 0.267c0.992 0.192 1.565 0.651 1.565 3.019v15.051c0 2.369-0.573 2.827-1.565 3.017l-1.451 0.267v1.109c1.031-0.039 2.827-0.115 4.62-0.115 1.72 0 3.935 0.076 4.889 0.115v-1.108l-1.987-0.267c-1.031-0.153-1.565-0.649-1.565-3.019v-6.379c0.917 0.076 1.72 0.076 2.941 0.076 2.331 4.164 4.547 7.296 5.807 8.747 1.147 1.376 2.903 2.255 5.119 2.255 0.649 0 1.337-0.115 1.757-0.307v-0.992c-1.375 0-2.751-0.955-3.744-2.024-1.68-1.835-3.933-4.776-5.807-8.099 3.093-0.727 5.387-3.629 5.387-6.533 0-4.277-3.323-6.264-7.677-6.264zM10.269 9.501c3.208 0 5.119 1.68 5.119 4.736 0 3.017-2.063 5.043-5.463 5.043-1.299 0-1.872-0.040-2.751-0.115v-9.587c0.88-0.079 2.063-0.079 3.093-0.079z">
            </path>
        </symbol>
        <symbol id="icon-ham" viewBox="0 0 32 32">
            <path d="M6.4 11.733V9.6h19.2v2.133H6.4zm0 5.334h19.2v-2.133H6.4v2.133zm0 5.333h19.2v-2.133H6.4V22.4z" />
        </symbol>
        <symbol id="icon-cross" viewBox="0 0 32 32">
            <path
                d="M23.733 10.304 22.229 8.8l-5.963 5.963L10.303 8.8l-1.504 1.504 5.963 5.963-5.963 5.963 1.504 1.504 5.963-5.963 5.963 5.963 1.504-1.504-5.963-5.963 5.963-5.963z" />
        </symbol>
    </defs>
</svg>